<svg xmlns="http://www.w3.org/2000/svg" xmlns:xlink="http://www.w3.org/1999/xlink" width="1366" zoomAndPan="magnify" viewBox="0 0 1024.5 576" height="768" preserveAspectRatio="xMidYMid meet" version="1.0"><defs><filter x="0%" y="0%" width="100%" height="100%" id="98a54fdd43"><feColorMatrix values="0 0 0 0 1 0 0 0 0 1 0 0 0 0 1 0 0 0 1 0" color-interpolation-filters="sRGB"/></filter><clipPath id="779e82aed9"><path d="M 0 0.140625 L 823 0.140625 L 823 575.859375 L 0 575.859375 Z M 0 0.140625 " clip-rule="nonzero"/></clipPath><mask id="d98e1dbf71"><g filter="url(#98a54fdd43)"><rect x="-102.45" width="1229.4" fill="#000000" y="-57.6" height="691.2" fill-opacity="0.55"/></g></mask><clipPath id="ff75e9ca9f"><path d="M 0.105469 0.140625 L 822.453125 0.140625 L 822.453125 575.859375 L 0.105469 575.859375 Z M 0.105469 0.140625 " clip-rule="nonzero"/></clipPath><clipPath id="3565aec513"><path d="M 792.46875 0.140625 L 29.984375 0.140625 C 13.425781 0.140625 0 13.566406 0 30.125 L 0 545.875 C 0 562.433594 13.425781 575.859375 29.984375 575.859375 L 792.46875 575.859375 C 809.03125 575.859375 822.453125 562.433594 822.453125 545.875 L 822.453125 30.125 C 822.453125 13.566406 809.03125 0.140625 792.46875 0.140625 Z M 792.46875 0.140625 " clip-rule="nonzero"/></clipPath><clipPath id="729176f802"><rect x="0" width="823" y="0" height="576"/></clipPath></defs><g clip-path="url(#779e82aed9)"><g mask="url(#d98e1dbf71)"><g transform="matrix(1, 0, 0, 1, 0, -0.000000000000058398)"><g clip-path="url(#729176f802)"><g clip-path="url(#ff75e9ca9f)"><g clip-path="url(#3565aec513)"><path fill="#ffffff" d="M 0 576.019531 L 0 -0.1875 L 534.269531 -0.1875 C 693.210938 -0.1875 822.453125 129.054688 822.453125 288 C 822.453125 446.941406 693.210938 576.183594 534.269531 576.183594 L 0 576.183594 Z M 6.527344 6.339844 L 6.527344 569.492188 L 534.269531 569.492188 C 689.621094 569.492188 815.925781 443.1875 815.925781 288 C 815.925781 132.644531 689.621094 6.339844 534.269531 6.339844 Z M 6.527344 6.339844 " fill-opacity="1" fill-rule="nonzero"/></g></g></g></g></g></g></svg>