<svg xmlns="http://www.w3.org/2000/svg" xmlns:xlink="http://www.w3.org/1999/xlink" width="1080" zoomAndPan="magnify" viewBox="0 0 810 809.999993" height="1080" preserveAspectRatio="xMidYMid meet" version="1.0"><defs><clipPath id="eb9d1be874"><path d="M 405 0 C 181.324219 0 0 181.324219 0 405 C 0 628.675781 181.324219 810 405 810 C 628.675781 810 810 628.675781 810 405 C 810 181.324219 628.675781 0 405 0 Z M 405 0 " clip-rule="nonzero"/></clipPath><clipPath id="e0b401808e"><path d="M 147.332031 147.714844 L 662.582031 147.714844 L 662.582031 665.964844 L 147.332031 665.964844 Z M 147.332031 147.714844 " clip-rule="nonzero"/></clipPath></defs><g clip-path="url(#eb9d1be874)"><path stroke-linecap="butt" transform="matrix(0.75, 0, 0, 0.75, 0.0000035, 0.00002)" fill="none" stroke-linejoin="miter" d="M 540.000023 -0.0000266667 C 241.765632 -0.0000266667 -0.00000466667 241.76561 -0.00000466667 540.000001 C -0.00000466667 838.234391 241.765632 1080.000028 540.000023 1080.000028 C 838.234413 1080.000028 1080.00005 838.234391 1080.00005 540.000001 C 1080.00005 241.76561 838.234413 -0.0000266667 540.000023 -0.0000266667 Z M 540.000023 -0.0000266667 " stroke="#147146" stroke-width="4" stroke-opacity="1" stroke-miterlimit="4"/></g><g clip-path="url(#e0b401808e)"><path fill="#147146" d="M 256.398438 207.453125 L 178.230469 207.453125 C 170.433594 207.453125 164.082031 213.792969 164.082031 221.570312 L 164.082031 635.210938 C 164.082031 643.011719 170.433594 649.359375 178.230469 649.359375 L 372.203125 649.359375 C 376.816406 649.359375 380.558594 653.105469 380.558594 657.714844 C 380.558594 662.328125 376.816406 666.074219 372.203125 666.074219 L 178.230469 666.074219 C 161.21875 666.074219 147.371094 652.226562 147.371094 635.210938 L 147.371094 221.570312 C 147.371094 204.59375 161.214844 190.738281 178.230469 190.738281 L 256.398438 190.738281 L 256.398438 185.503906 C 256.398438 180.890625 260.140625 177.148438 264.757812 177.148438 C 264.757812 177.148438 308.09375 177.148438 308.09375 177.148438 C 314.964844 160.023438 331.726562 147.921875 351.308594 147.921875 C 370.890625 147.921875 387.65625 160.023438 394.546875 177.148438 L 437.863281 177.148438 C 442.480469 177.148438 446.222656 180.890625 446.222656 185.503906 L 446.222656 190.738281 L 524.417969 190.738281 C 541.398438 190.738281 555.25 204.589844 555.25 221.570312 L 555.25 397.066406 C 555.25 401.679688 551.503906 405.425781 546.890625 405.425781 C 542.28125 405.425781 538.535156 401.679688 538.535156 397.066406 L 538.535156 221.570312 C 538.535156 213.796875 532.191406 207.453125 524.417969 207.453125 L 446.222656 207.453125 L 446.222656 222.007812 L 515.625 222.007812 C 520.238281 222.007812 523.980469 225.75 523.980469 230.367188 L 523.980469 397.066406 C 523.980469 401.679688 520.234375 405.425781 515.625 405.425781 C 511.011719 405.425781 507.265625 401.679688 507.265625 397.066406 C 507.265625 397.066406 507.265625 238.722656 507.265625 238.722656 L 446.222656 238.722656 L 446.222656 243.957031 C 446.222656 248.574219 442.480469 252.316406 437.863281 252.316406 L 264.757812 252.316406 C 260.140625 252.316406 256.398438 248.574219 256.398438 243.957031 L 256.398438 238.722656 L 195.355469 238.722656 C 195.355469 238.722656 195.355469 618.089844 195.355469 618.089844 L 367.90625 618.089844 C 372.519531 618.089844 376.265625 621.835938 376.265625 626.445312 C 376.265625 631.058594 372.519531 634.804688 367.90625 634.804688 L 186.996094 634.804688 C 182.382812 634.804688 178.640625 631.0625 178.640625 626.445312 L 178.640625 230.367188 C 178.640625 225.75 182.382812 222.007812 186.996094 222.007812 L 256.398438 222.007812 Z M 429.507812 235.601562 L 429.507812 193.863281 L 388.472656 193.863281 C 384.613281 193.863281 381.257812 191.222656 380.347656 187.46875 C 377.179688 174.375 365.378906 164.636719 351.308594 164.636719 C 337.25 164.636719 325.449219 174.367188 322.304688 187.457031 C 321.402344 191.214844 318.042969 193.863281 314.175781 193.863281 L 273.113281 193.863281 L 273.113281 235.601562 Z M 351.308594 198.589844 C 345.269531 198.589844 340.355469 193.644531 340.355469 187.605469 C 340.355469 181.566406 345.269531 176.652344 351.308594 176.652344 C 357.347656 176.652344 362.292969 181.566406 362.292969 187.605469 C 362.292969 193.644531 357.347656 198.589844 351.308594 198.589844 Z M 345.925781 447.402344 L 226.101562 447.402344 C 221.488281 447.402344 217.746094 443.660156 217.746094 439.042969 L 217.746094 395.707031 C 217.746094 370.714844 238.007812 350.453125 263 350.453125 L 309.027344 350.453125 C 334.019531 350.453125 354.28125 370.714844 354.28125 395.707031 L 354.28125 439.042969 C 354.28125 443.660156 350.539062 447.402344 345.925781 447.402344 Z M 325.414062 430.6875 L 337.566406 430.6875 L 337.566406 395.707031 C 337.566406 379.945312 324.789062 367.167969 309.027344 367.167969 L 263 367.167969 C 247.238281 367.167969 234.460938 379.945312 234.460938 395.707031 L 234.460938 430.6875 L 246.613281 430.6875 L 246.613281 400.179688 C 246.613281 395.566406 250.359375 391.824219 254.96875 391.824219 C 259.582031 391.824219 263.328125 395.566406 263.328125 400.179688 L 263.328125 430.6875 L 308.699219 430.6875 L 308.699219 400.179688 C 308.699219 395.566406 312.445312 391.824219 317.058594 391.824219 C 321.671875 391.824219 325.414062 395.566406 325.414062 400.179688 Z M 379.378906 321.703125 C 374.765625 321.703125 371.023438 317.957031 371.023438 313.34375 C 371.023438 308.730469 374.765625 304.988281 379.378906 304.988281 L 473.234375 304.988281 C 477.84375 304.988281 481.589844 308.730469 481.589844 313.34375 C 481.589844 317.957031 477.84375 321.703125 473.234375 321.703125 Z M 379.378906 355.097656 C 374.765625 355.097656 371.023438 351.355469 371.023438 346.742188 C 371.023438 342.128906 374.765625 338.382812 379.378906 338.382812 L 473.234375 338.382812 C 477.84375 338.382812 481.589844 342.128906 481.589844 346.742188 C 481.589844 351.355469 477.84375 355.097656 473.234375 355.097656 Z M 379.378906 391.171875 C 374.765625 391.171875 371.023438 387.429688 371.023438 382.816406 C 371.023438 378.203125 374.765625 374.460938 379.378906 374.460938 L 473.234375 374.460938 C 477.84375 374.460938 481.589844 378.203125 481.589844 382.816406 C 481.589844 387.429688 477.84375 391.171875 473.234375 391.171875 Z M 279.816406 530.558594 L 317.417969 492.5625 L 317.433594 492.546875 C 325.835938 484.101562 339.554688 484.0625 348.003906 492.464844 C 356.445312 500.867188 356.503906 514.53125 348.101562 523.019531 L 348.097656 523.023438 C 330.433594 540.847656 312.902344 558.78125 295.15625 576.527344 C 286.714844 584.96875 273.003906 584.96875 264.5625 576.527344 L 235.152344 547.089844 C 226.714844 538.652344 226.699219 524.992188 235.136719 516.507812 L 235.152344 516.492188 C 243.59375 508.050781 257.304688 508.050781 265.75 516.492188 Z M 273.9375 548.320312 L 253.929688 528.3125 C 252.011719 526.394531 248.898438 526.394531 246.972656 528.3125 C 245.0625 530.246094 245.050781 533.351562 246.972656 535.269531 L 276.378906 564.707031 C 278.300781 566.625 281.417969 566.625 283.339844 564.707031 C 301.0625 546.980469 318.578125 529.066406 336.222656 511.261719 C 338.132812 509.332031 338.136719 506.222656 336.214844 504.316406 C 334.300781 502.410156 331.191406 502.421875 329.285156 504.332031 L 285.785156 548.289062 C 284.222656 549.871094 282.09375 550.761719 279.867188 550.765625 C 277.644531 550.773438 275.507812 549.890625 273.9375 548.320312 Z M 286.015625 268.925781 C 306.015625 268.925781 322.253906 285.164062 322.253906 305.167969 C 322.253906 325.167969 306.015625 341.40625 286.015625 341.40625 C 266.011719 341.40625 249.773438 325.167969 249.773438 305.167969 C 249.773438 285.164062 266.011719 268.925781 286.015625 268.925781 Z M 286.015625 285.640625 C 275.238281 285.640625 266.488281 294.390625 266.488281 305.167969 C 266.488281 315.941406 275.238281 324.691406 286.015625 324.691406 C 296.792969 324.691406 305.539062 315.941406 305.539062 305.167969 C 305.539062 294.390625 296.792969 285.640625 286.015625 285.640625 Z M 390.890625 554.074219 C 383.617188 547.132812 378.976562 538.574219 378.976562 527.898438 L 378.976562 480.242188 C 378.976562 470.121094 387.238281 461.886719 397.359375 461.886719 L 460.359375 461.886719 L 460.359375 449.335938 C 460.359375 433.230469 473.539062 420.050781 489.648438 420.050781 L 552.0625 420.050781 C 568.167969 420.050781 581.351562 433.230469 581.351562 449.335938 L 581.351562 461.886719 L 644.351562 461.886719 C 654.46875 461.886719 662.734375 470.121094 662.734375 480.242188 L 662.734375 527.898438 C 662.734375 538.574219 658.089844 547.132812 650.820312 554.074219 L 650.820312 638.171875 C 650.820312 653.488281 638.269531 666.074219 622.914062 666.074219 L 418.792969 666.074219 C 403.4375 666.074219 390.890625 653.488281 390.890625 638.171875 Z M 488.152344 581.257812 C 455.320312 579.164062 425.515625 573.722656 407.605469 565.378906 L 407.605469 638.171875 C 407.605469 644.3125 412.636719 649.359375 418.792969 649.359375 L 622.914062 649.359375 C 629.070312 649.359375 634.105469 644.3125 634.105469 638.171875 L 634.105469 565.375 C 616.242188 573.671875 586.425781 579.132812 553.558594 581.238281 C 551.511719 597.484375 537.660156 610.03125 520.855469 610.03125 C 504.054688 610.03125 490.207031 597.496094 488.152344 581.257812 Z M 582.21875 478.601562 L 459.492188 478.601562 L 459.492188 502.8125 C 459.492188 505.113281 461.375 506.996094 463.675781 506.996094 L 578.03125 506.996094 C 580.332031 506.996094 582.214844 505.113281 582.214844 502.8125 C 582.214844 502.8125 582.214844 478.601562 582.21875 478.601562 Z M 564.636719 461.886719 L 564.636719 449.335938 C 564.636719 442.421875 558.976562 436.765625 552.0625 436.765625 L 489.648438 436.765625 C 482.730469 436.765625 477.074219 442.421875 477.074219 449.335938 L 477.074219 461.886719 Z M 504.601562 577.066406 C 504.601562 586.046875 511.871094 593.316406 520.855469 593.316406 C 529.835938 593.316406 537.105469 586.046875 537.105469 577.066406 C 537.105469 568.117188 529.851562 560.8125 520.855469 560.8125 C 511.855469 560.8125 504.601562 568.117188 504.601562 577.066406 Z M 442.777344 478.601562 L 397.359375 478.601562 C 396.445312 478.601562 395.691406 479.332031 395.691406 480.242188 L 395.691406 527.898438 C 395.691406 534.6875 399.496094 539.707031 404.550781 543.855469 C 404.558594 543.863281 404.566406 543.867188 404.574219 543.875 C 406.195312 545.214844 407.953125 546.445312 409.792969 547.613281 C 424.898438 557.175781 455.894531 562.601562 490.308594 564.648438 C 495.207031 552.617188 507.011719 544.097656 520.855469 544.097656 C 534.691406 544.097656 546.488281 552.605469 551.390625 564.628906 C 585.859375 562.550781 616.886719 557.117188 631.917969 547.613281 C 633.757812 546.445312 635.511719 545.214844 637.136719 543.875 C 637.144531 543.867188 637.152344 543.863281 637.160156 543.855469 C 642.210938 539.707031 646.019531 534.6875 646.019531 527.898438 L 646.019531 480.242188 C 646.019531 479.332031 645.261719 478.601562 644.351562 478.601562 L 598.929688 478.601562 L 598.929688 502.8125 C 598.929688 514.3125 589.53125 523.710938 578.03125 523.710938 L 463.675781 523.710938 C 452.179688 523.710938 442.777344 514.3125 442.777344 502.8125 Z M 442.777344 478.601562 " fill-opacity="1" fill-rule="evenodd"/></g></svg>