<svg xmlns="http://www.w3.org/2000/svg" xmlns:xlink="http://www.w3.org/1999/xlink" width="1080" zoomAndPan="magnify" viewBox="0 0 810 809.999993" height="1080" preserveAspectRatio="xMidYMid meet" version="1.0"><defs><clipPath id="8ea27bc078"><path d="M 405 0 C 181.324219 0 0 181.324219 0 405 C 0 628.675781 181.324219 810 405 810 C 628.675781 810 810 628.675781 810 405 C 810 181.324219 628.675781 0 405 0 Z M 405 0 " clip-rule="nonzero"/></clipPath><clipPath id="6c54d2d33b"><path d="M 169.082031 184.414062 L 640.832031 184.414062 L 640.832031 625.414062 L 169.082031 625.414062 Z M 169.082031 184.414062 " clip-rule="nonzero"/></clipPath></defs><g clip-path="url(#8ea27bc078)"><path stroke-linecap="butt" transform="matrix(0.75, 0, 0, 0.75, 0.0000035, 0.00002)" fill="none" stroke-linejoin="miter" d="M 540.000023 -0.0000266667 C 241.765632 -0.0000266667 -0.00000466667 241.76561 -0.00000466667 540.000001 C -0.00000466667 838.234391 241.765632 1080.000028 540.000023 1080.000028 C 838.234413 1080.000028 1080.00005 838.234391 1080.00005 540.000001 C 1080.00005 241.76561 838.234413 -0.0000266667 540.000023 -0.0000266667 Z M 540.000023 -0.0000266667 " stroke="#147146" stroke-width="4" stroke-opacity="1" stroke-miterlimit="4"/></g><g clip-path="url(#6c54d2d33b)"><path fill="#165b36" d="M 208.957031 326.335938 C 205.976562 327.328125 202.789062 327.867188 199.476562 327.867188 C 182.90625 327.867188 169.457031 314.414062 169.457031 297.847656 C 169.457031 281.277344 182.90625 267.824219 199.476562 267.824219 C 216.046875 267.824219 229.496094 281.277344 229.496094 297.847656 C 229.496094 305.617188 226.539062 312.699219 221.6875 318.035156 L 234.96875 338.4375 L 277.734375 338.4375 L 277.734375 328.300781 C 277.734375 315.589844 288.128906 305.179688 300.890625 305.179688 L 312.34375 305.179688 L 312.34375 277.046875 C 312.34375 226.082031 354.050781 184.378906 405.015625 184.378906 C 455.980469 184.378906 497.648438 226.082031 497.648438 277.046875 L 497.648438 305.179688 L 509.140625 305.179688 C 521.90625 305.179688 532.261719 315.585938 532.261719 328.300781 L 532.261719 338.4375 C 546.332031 338.4375 575.023438 338.4375 575.023438 338.4375 L 588.308594 318.035156 C 583.457031 312.699219 580.496094 305.617188 580.496094 297.847656 C 580.496094 281.277344 593.949219 267.824219 610.519531 267.824219 C 627.085938 267.824219 640.539062 281.277344 640.539062 297.847656 C 640.539062 314.414062 627.085938 327.867188 610.519531 327.867188 C 607.203125 327.867188 604.015625 327.328125 601.035156 326.335938 L 585.511719 350.179688 C 584.109375 352.332031 581.714844 353.632812 579.144531 353.632812 L 532.261719 353.632812 L 532.261719 403.46875 L 559.046875 403.46875 C 562.417969 390.574219 574.152344 381.046875 588.097656 381.046875 C 604.664062 381.046875 618.117188 394.5 618.117188 411.066406 C 618.117188 427.636719 604.664062 441.085938 588.097656 441.085938 C 574.152344 441.085938 562.417969 431.558594 559.046875 418.664062 L 532.261719 418.664062 L 532.261719 463.148438 L 579.144531 463.148438 C 581.714844 463.148438 584.109375 464.445312 585.511719 466.597656 L 601.035156 490.445312 C 604.015625 489.449219 607.203125 488.914062 610.519531 488.914062 C 627.085938 488.914062 640.539062 502.363281 640.539062 518.933594 C 640.539062 535.5 627.085938 548.953125 610.519531 548.953125 C 593.949219 548.953125 580.496094 535.5 580.496094 518.933594 C 580.496094 511.164062 583.457031 504.078125 588.308594 498.746094 L 575.023438 478.34375 L 532.261719 478.34375 L 532.261719 493.835938 C 532.261719 505.527344 523.578125 515.195312 512.3125 516.738281 L 512.3125 571.625 C 512.3125 580.058594 510.402344 587.277344 506.277344 594.640625 L 506.269531 594.65625 C 505.777344 595.527344 505.546875 596.527344 505.546875 597.601562 L 505.546875 617.925781 C 505.546875 622.121094 502.144531 625.523438 497.949219 625.523438 L 392.78125 625.523438 C 388.582031 625.523438 385.179688 622.121094 385.179688 617.925781 L 385.179688 597.601562 C 385.179688 595.410156 384.113281 593.53125 382.222656 592.429688 L 365.515625 582.703125 C 353.878906 575.933594 345.710938 565.421875 344.535156 552.003906 L 341.96875 523.15625 C 341.949219 522.933594 341.941406 522.710938 341.941406 522.484375 C 341.941406 520.574219 342.058594 518.730469 342.292969 516.957031 L 300.890625 516.957031 C 288.128906 516.957031 277.734375 506.597656 277.734375 493.835938 L 277.734375 478.34375 C 263.664062 478.34375 234.96875 478.34375 234.96875 478.34375 L 221.6875 498.746094 C 226.539062 504.078125 229.496094 511.164062 229.496094 518.933594 C 229.496094 535.5 216.046875 548.953125 199.476562 548.953125 C 182.90625 548.953125 169.457031 535.5 169.457031 518.933594 C 169.457031 502.363281 182.90625 488.914062 199.476562 488.914062 C 202.789062 488.914062 205.976562 489.449219 208.957031 490.445312 L 224.484375 466.597656 C 225.886719 464.445312 228.28125 463.148438 230.851562 463.148438 L 277.734375 463.148438 L 277.734375 418.664062 L 250.945312 418.664062 C 247.578125 431.558594 235.84375 441.085938 221.898438 441.085938 C 205.328125 441.085938 191.878906 427.636719 191.878906 411.066406 C 191.878906 394.5 205.328125 381.046875 221.898438 381.046875 C 235.84375 381.046875 247.578125 390.574219 250.945312 403.46875 L 277.734375 403.46875 L 277.734375 353.632812 L 230.851562 353.632812 C 228.28125 353.632812 225.886719 352.332031 224.484375 350.179688 Z M 509.140625 320.375 L 300.890625 320.375 C 296.507812 320.375 292.929688 323.9375 292.929688 328.300781 L 292.929688 493.835938 C 292.929688 498.214844 296.507812 501.757812 300.890625 501.757812 L 348.113281 501.757812 C 353.945312 493.628906 363.554688 488.730469 375.421875 488.027344 L 375.421875 466.761719 C 355.507812 456.160156 341.941406 435.183594 341.941406 411.066406 C 341.941406 376.265625 370.195312 348.011719 404.996094 348.011719 C 439.800781 348.011719 468.054688 376.265625 468.054688 411.066406 C 468.054688 432.277344 457.558594 451.054688 441.484375 462.488281 C 445.839844 464.273438 449.582031 467.296875 452.261719 471.109375 C 455.402344 469.476562 458.964844 468.558594 462.738281 468.558594 C 471.667969 468.558594 479.425781 473.753906 483.164062 481.277344 C 485.277344 480.617188 487.523438 480.261719 489.855469 480.261719 C 501.648438 480.261719 511.429688 489.492188 512.253906 501.125 C 515.082031 499.914062 517.066406 497.105469 517.066406 493.835938 L 517.066406 328.300781 C 517.066406 323.941406 513.515625 320.375 509.140625 320.375 Z M 482.453125 305.179688 L 482.453125 277.046875 C 482.453125 234.441406 447.621094 199.574219 405.015625 199.574219 C 362.40625 199.574219 327.542969 234.441406 327.542969 277.046875 L 327.542969 305.179688 L 351.316406 305.179688 L 351.316406 277.046875 C 351.316406 247.558594 375.566406 223.3125 405.015625 223.3125 C 434.464844 223.3125 458.714844 247.558594 458.714844 277.046875 L 458.714844 305.179688 Z M 375.421875 448.6875 L 375.421875 417.253906 C 375.421875 404.023438 386.21875 393.191406 399.449219 393.191406 C 412.679688 393.191406 423.511719 404.027344 423.511719 417.253906 C 423.511719 417.253906 423.511719 442.511719 423.511719 455.210938 C 440.746094 447.96875 452.859375 430.921875 452.859375 411.066406 C 452.859375 384.652344 431.410156 363.207031 404.996094 363.207031 C 378.582031 363.207031 357.136719 384.652344 357.136719 411.066406 C 357.136719 426.324219 364.289062 439.917969 375.421875 448.6875 Z M 443.519531 305.179688 L 443.519531 277.046875 C 443.519531 255.898438 426.132812 238.507812 405.015625 238.507812 C 383.894531 238.507812 366.511719 255.898438 366.511719 277.046875 L 366.511719 305.179688 Z M 199.476562 283.023438 C 191.296875 283.023438 184.652344 289.664062 184.652344 297.847656 C 184.652344 306.027344 191.296875 312.667969 199.476562 312.667969 C 207.65625 312.667969 214.300781 306.027344 214.300781 297.847656 C 214.300781 289.664062 207.65625 283.023438 199.476562 283.023438 Z M 610.519531 283.023438 C 602.335938 283.023438 595.695312 289.664062 595.695312 297.847656 C 595.695312 306.027344 602.335938 312.667969 610.519531 312.667969 C 618.699219 312.667969 625.339844 306.027344 625.339844 297.847656 C 625.339844 289.664062 618.699219 283.023438 610.519531 283.023438 Z M 588.097656 396.242188 C 579.914062 396.242188 573.273438 402.886719 573.273438 411.066406 C 573.273438 419.25 579.914062 425.890625 588.097656 425.890625 C 596.277344 425.890625 602.917969 419.25 602.917969 411.066406 C 602.917969 402.886719 596.277344 396.242188 588.097656 396.242188 Z M 610.519531 504.109375 C 602.335938 504.109375 595.695312 510.75 595.695312 518.933594 C 595.695312 527.113281 602.335938 533.757812 610.519531 533.757812 C 618.699219 533.757812 625.339844 527.113281 625.339844 518.933594 C 625.339844 510.75 618.699219 504.109375 610.519531 504.109375 Z M 491.714844 590.003906 C 492.078125 589.039062 492.515625 588.109375 493.019531 587.21875 C 495.8125 582.226562 497.113281 577.339844 497.113281 571.625 L 497.113281 502.71875 C 497.113281 498.71875 493.839844 495.457031 489.855469 495.457031 C 487.46875 495.457031 485.355469 496.613281 484.023438 498.394531 C 482.066406 501.019531 478.648438 502.09375 475.539062 501.0625 C 472.433594 500.03125 470.335938 497.128906 470.335938 493.851562 L 470.335938 491.382812 C 470.335938 487.191406 466.925781 483.753906 462.738281 483.753906 C 459.722656 483.753906 457.125 485.527344 455.867188 488.074219 C 454.3125 491.21875 450.8125 492.890625 447.390625 492.125 C 443.96875 491.355469 441.515625 488.347656 441.457031 484.839844 C 441.375 479.882812 437.269531 475.875 432.3125 475.875 C 427.917969 475.875 424.238281 478.992188 423.339844 483.136719 C 422.519531 486.933594 418.96875 489.496094 415.105469 489.082031 C 411.242188 488.671875 408.316406 485.414062 408.316406 481.53125 L 408.316406 417.253906 C 408.316406 412.382812 404.324219 408.390625 399.449219 408.390625 C 394.582031 408.390625 390.617188 412.386719 390.617188 417.253906 L 390.617188 495.398438 C 390.617188 499.511719 387.339844 502.882812 383.226562 502.992188 L 377.542969 503.148438 L 377.523438 503.148438 C 365.746094 503.4375 357.289062 510.472656 357.136719 522.171875 L 359.667969 550.660156 L 359.671875 550.667969 C 360.40625 559.050781 365.890625 565.339844 373.15625 569.566406 L 389.871094 579.300781 C 394.246094 581.847656 397.386719 585.566406 399.042969 590.003906 Z M 400.378906 605.199219 L 400.378906 610.328125 C 400.378906 610.328125 490.351562 610.328125 490.351562 610.328125 L 490.351562 605.199219 Z M 199.476562 504.109375 C 191.296875 504.109375 184.652344 510.75 184.652344 518.933594 C 184.652344 527.113281 191.296875 533.757812 199.476562 533.757812 C 207.65625 533.757812 214.300781 527.113281 214.300781 518.933594 C 214.300781 510.75 207.65625 504.109375 199.476562 504.109375 Z M 221.898438 396.242188 C 213.714844 396.242188 207.074219 402.886719 207.074219 411.066406 C 207.074219 419.25 213.714844 425.890625 221.898438 425.890625 C 230.078125 425.890625 236.722656 419.25 236.722656 411.066406 C 236.722656 402.886719 230.078125 396.242188 221.898438 396.242188 Z M 221.898438 396.242188 " fill-opacity="1" fill-rule="evenodd"/></g></svg>