<svg xmlns="http://www.w3.org/2000/svg" xmlns:xlink="http://www.w3.org/1999/xlink" width="1080" zoomAndPan="magnify" viewBox="0 0 810 809.999993" height="1080" preserveAspectRatio="xMidYMid meet" version="1.0"><defs><clipPath id="57052f56cd"><path d="M 405 0 C 181.324219 0 0 181.324219 0 405 C 0 628.675781 181.324219 810 405 810 C 628.675781 810 810 628.675781 810 405 C 810 181.324219 628.675781 0 405 0 Z M 405 0 " clip-rule="nonzero"/></clipPath><clipPath id="cb320364b4"><path d="M 117.410156 130.207031 L 692.660156 130.207031 L 692.660156 637.207031 L 117.410156 637.207031 Z M 117.410156 130.207031 " clip-rule="nonzero"/></clipPath></defs><g clip-path="url(#57052f56cd)"><path stroke-linecap="butt" transform="matrix(0.75, 0, 0, 0.75, 0.0000035, 0.00002)" fill="none" stroke-linejoin="miter" d="M 540.000023 -0.0000266667 C 241.765632 -0.0000266667 -0.00000466667 241.76561 -0.00000466667 540.000001 C -0.00000466667 838.234391 241.765632 1080.000028 540.000023 1080.000028 C 838.234413 1080.000028 1080.00005 838.234391 1080.00005 540.000001 C 1080.00005 241.76561 838.234413 -0.0000266667 540.000023 -0.0000266667 Z M 540.000023 -0.0000266667 " stroke="#147146" stroke-width="4" stroke-opacity="1" stroke-miterlimit="4"/></g><g clip-path="url(#cb320364b4)"><path fill="#147146" d="M 405.042969 510.882812 L 318.003906 423.820312 C 309.429688 415.28125 304.753906 403.867188 304.753906 391.679688 C 304.753906 379.492188 309.429688 368.078125 318.003906 359.539062 C 326.53125 351 337.921875 346.289062 350.144531 346.289062 C 362.371094 346.289062 373.722656 350.988281 382.238281 359.539062 L 399.972656 377.273438 C 402.800781 380.0625 407.332031 380.0625 410.097656 377.273438 L 427.832031 359.539062 C 436.410156 351 447.796875 346.289062 459.976562 346.289062 C 472.152344 346.289062 483.554688 350.988281 492.117188 359.539062 C 509.851562 377.261719 509.851562 406.097656 492.117188 423.808594 L 405.03125 510.871094 Z M 334.175781 303.9375 L 334.175781 334.136719 C 339.292969 332.726562 344.648438 332 350.144531 332 C 353.84375 332 357.503906 332.347656 361.105469 333.003906 L 361.105469 315.683594 C 361.105469 311.738281 364.324219 308.53125 368.261719 308.53125 C 372.195312 308.53125 375.417969 311.738281 375.417969 315.683594 L 375.417969 337.558594 C 381.65625 340.457031 387.402344 344.453125 392.363281 349.4375 L 405.03125 362.113281 L 417.695312 349.4375 C 422.71875 344.441406 428.464844 340.457031 434.691406 337.558594 L 434.691406 315.683594 C 434.691406 311.738281 437.910156 308.53125 441.847656 308.53125 C 445.78125 308.53125 449.003906 311.738281 449.003906 315.683594 L 449.003906 333.003906 C 452.558594 332.347656 456.207031 332 459.964844 332 C 465.414062 332 470.78125 332.738281 475.886719 334.136719 L 475.886719 303.9375 C 475.886719 288.945312 463.707031 276.746094 448.703125 276.746094 L 430.445312 276.746094 C 422.945312 281.015625 414.273438 283.472656 405.019531 283.472656 C 395.765625 283.472656 387.09375 281.003906 379.589844 276.722656 C 379.402344 276.734375 379.199219 276.746094 378.960938 276.746094 L 361.378906 276.746094 C 346.375 276.746094 334.152344 288.945312 334.152344 303.9375 Z M 262.914062 314.707031 L 262.914062 265.476562 C 262.914062 261.527344 259.753906 258.320312 255.761719 258.320312 C 251.765625 258.320312 248.652344 261.527344 248.652344 265.476562 L 248.652344 314.707031 L 221.722656 314.707031 L 221.722656 253.738281 C 221.722656 238.75 233.945312 226.546875 248.902344 226.546875 L 267.222656 226.546875 C 274.722656 230.816406 283.34375 233.273438 292.601562 233.273438 C 301.855469 233.273438 310.527344 230.816406 318.027344 226.523438 C 318.265625 226.546875 318.46875 226.546875 318.660156 226.546875 L 336.285156 226.546875 C 342.570312 226.546875 348.703125 228.777344 353.578125 232.820312 C 353.769531 243.875 357.433594 254.097656 363.5625 262.421875 L 361.414062 262.421875 C 338.527344 262.421875 319.863281 281.039062 319.863281 303.925781 L 319.863281 314.707031 Z M 292.578125 144.53125 C 313.078125 144.53125 329.785156 161.226562 329.785156 181.738281 C 329.785156 202.253906 313.078125 218.949219 292.578125 218.949219 C 272.074219 218.949219 255.367188 202.253906 255.367188 181.738281 C 255.367188 161.226562 272.074219 144.53125 292.578125 144.53125 Z M 405.042969 194.714844 C 425.589844 194.714844 442.253906 211.414062 442.253906 231.925781 C 442.253906 252.441406 425.589844 269.136719 405.042969 269.136719 C 384.492188 269.136719 367.832031 252.441406 367.832031 231.925781 C 367.832031 211.414062 384.539062 194.714844 405.042969 194.714844 Z M 473.859375 226.546875 L 491.484375 226.546875 C 491.675781 226.546875 491.878906 226.546875 492.070312 226.523438 C 499.570312 230.816406 508.289062 233.273438 517.542969 233.273438 C 526.796875 233.273438 535.421875 230.828125 542.921875 226.546875 L 561.183594 226.546875 C 576.1875 226.546875 588.410156 238.75 588.410156 253.738281 L 588.410156 314.707031 L 561.480469 314.707031 L 561.480469 265.476562 C 561.480469 261.527344 558.261719 258.320312 554.324219 258.320312 C 550.390625 258.320312 547.167969 261.527344 547.167969 265.476562 L 547.167969 314.707031 L 490.234375 314.707031 L 490.234375 303.925781 C 490.234375 281.039062 471.628906 262.421875 448.742188 262.421875 L 446.546875 262.421875 C 452.6875 254.097656 456.386719 243.863281 456.578125 232.796875 C 456.578125 232.773438 456.625 232.75 456.671875 232.726562 C 461.488281 228.742188 467.632812 226.535156 473.871094 226.535156 Z M 517.554688 144.53125 C 538.058594 144.53125 554.765625 161.226562 554.765625 181.738281 C 554.765625 202.253906 538.058594 218.949219 517.554688 218.949219 C 497.054688 218.949219 480.34375 202.253906 480.34375 181.738281 C 480.34375 161.226562 497.007812 144.53125 517.554688 144.53125 Z M 519.691406 391.679688 C 519.691406 375.675781 513.5 360.671875 502.253906 349.414062 C 498.605469 345.777344 494.5625 342.675781 490.21875 340.132812 L 490.21875 329.019531 L 595.519531 329.019531 C 599.515625 329.019531 602.675781 325.8125 602.675781 321.863281 L 602.675781 253.738281 C 602.675781 230.851562 584.070312 212.234375 561.183594 212.234375 L 559.035156 212.234375 C 565.320312 203.695312 569.019531 193.152344 569.019531 181.738281 C 569.019531 153.332031 545.929688 130.21875 517.53125 130.21875 C 489.136719 130.21875 466 153.332031 466 181.738281 C 466 193.140625 469.695312 203.695312 475.980469 212.234375 L 473.832031 212.234375 C 467.011719 212.234375 460.34375 213.941406 454.347656 217.125 C 447.964844 195.910156 428.285156 180.40625 405.007812 180.40625 C 381.726562 180.40625 362.046875 195.910156 355.667969 217.125 C 349.726562 213.941406 343 212.234375 336.238281 212.234375 L 334.042969 212.234375 C 340.328125 203.695312 344.074219 193.152344 344.074219 181.738281 C 344.074219 153.332031 320.9375 130.21875 292.539062 130.21875 C 264.144531 130.21875 241.007812 153.332031 241.007812 181.738281 C 241.007812 193.140625 244.753906 203.695312 251.039062 212.234375 L 248.84375 212.234375 C 226.003906 212.234375 207.351562 230.851562 207.351562 253.738281 L 207.351562 321.863281 C 207.351562 325.8125 210.570312 329.019531 214.507812 329.019531 L 319.804688 329.019531 L 319.804688 340.132812 C 315.476562 342.6875 311.433594 345.777344 307.820312 349.414062 C 296.570312 360.660156 290.382812 375.664062 290.382812 391.679688 C 290.382812 407.699219 296.570312 422.6875 307.820312 433.933594 L 399.925781 526.066406 C 401.285156 527.414062 403.085938 528.164062 404.996094 528.164062 C 406.902344 528.164062 408.738281 527.414062 410.0625 526.066406 L 502.21875 433.933594 C 513.464844 422.6875 519.65625 407.683594 519.65625 391.679688 Z M 287.519531 622.71875 L 363.300781 622.71875 C 357.457031 602.871094 355.070312 583.410156 355.847656 562.238281 C 357.457031 517.933594 329.011719 492.945312 304.898438 479.804688 C 288.390625 470.8125 276.355469 460.542969 264.714844 450.621094 C 254.007812 441.460938 243.871094 432.8125 230.378906 425.039062 C 223.320312 420.949219 214.601562 420.578125 207.101562 424.046875 C 204.464844 425.277344 202.769531 427.257812 202.03125 430.09375 C 201.257812 432.933594 201.6875 435.472656 203.390625 437.882812 C 211.667969 449.617188 219.5625 459.089844 229.738281 469.546875 C 233.242188 473.136719 236.988281 476.796875 240.648438 480.328125 C 254.972656 494.269531 269.726562 508.691406 278.539062 527.03125 C 280.246094 530.597656 278.777344 534.867188 275.175781 536.574219 C 271.621094 538.277344 267.339844 536.789062 265.636719 533.222656 C 257.941406 517.167969 244.058594 503.644531 230.667969 490.574219 C 226.96875 486.972656 223.117188 483.261719 219.515625 479.542969 C 208.902344 468.664062 200.324219 458.359375 191.703125 446.125 C 187.613281 440.292969 186.347656 433.28125 188.195312 426.398438 C 189.507812 421.519531 192.191406 417.359375 195.9375 414.292969 L 172.023438 325.035156 C 169.101562 314.171875 157.902344 307.707031 147.039062 310.617188 C 141.828125 312.023438 137.4375 315.398438 134.71875 320.132812 C 131.941406 324.867188 131.210938 330.367188 132.621094 335.589844 L 149.613281 399.027344 C 157.210938 427.421875 166.957031 453.207031 178.597656 475.664062 C 186.050781 490.097656 194.960938 502.09375 205.777344 512.351562 C 240.648438 545.484375 266.707031 580.652344 287.507812 622.730469 Z M 212.65625 363.257812 L 224.691406 407.972656 C 219.574219 407.078125 214.269531 407.183594 209.152344 408.316406 L 193.027344 348.160156 C 201.984375 348.230469 210.273438 354.277344 212.65625 363.246094 Z M 251.859375 403.425781 L 258.097656 426.566406 C 252.933594 422.582031 247.433594 418.644531 241.339844 414.902344 L 234.234375 388.425781 C 242.460938 389.269531 249.675781 395.078125 251.859375 403.425781 Z M 370.167969 562.753906 C 371.636719 521.890625 351.46875 488.867188 311.71875 467.234375 C 297.929688 459.707031 287.601562 451.289062 277.132812 442.378906 C 277.132812 442.332031 277.132812 442.296875 277.085938 442.246094 L 265.683594 399.71875 C 261.402344 383.726562 246.445312 373.195312 230.367188 374.042969 L 226.46875 359.550781 C 222.03125 343.019531 205.917969 332.285156 189.257812 334.039062 L 185.847656 321.316406 C 180.875 302.828125 161.839844 291.820312 143.328125 296.78125 C 134.421875 299.167969 126.917969 304.914062 122.292969 312.964844 C 117.664062 321.015625 116.398438 330.355469 118.785156 339.289062 L 135.78125 402.722656 C 143.675781 432.121094 153.800781 458.863281 165.882812 482.238281 C 174.113281 498.109375 183.902344 511.347656 195.890625 522.726562 C 230.621094 555.679688 256.285156 590.71875 276.59375 632.988281 C 277.765625 635.46875 280.292969 637.042969 283.023438 637.042969 L 373.078125 637.042969 C 375.371094 637.042969 377.5625 635.921875 378.875 634.035156 C 380.234375 632.152344 380.582031 629.730469 379.855469 627.546875 C 372.304688 605.769531 369.335938 585.792969 370.15625 562.765625 Z M 677.453125 335.578125 C 678.859375 330.34375 678.132812 324.855469 675.402344 320.121094 C 672.671875 315.386719 668.292969 312.011719 663.035156 310.605469 C 652.167969 307.695312 640.96875 314.171875 638.097656 325.023438 L 614.136719 414.28125 C 617.941406 417.359375 620.613281 421.507812 621.921875 426.386719 C 623.773438 433.28125 622.507812 440.292969 618.417969 446.113281 C 609.792969 458.335938 601.21875 468.652344 590.558594 479.53125 C 586.957031 483.25 583.152344 486.960938 579.453125 490.5625 C 566.011719 503.644531 552.128906 517.15625 544.4375 533.210938 C 542.734375 536.777344 538.449219 538.277344 534.898438 536.5625 C 531.34375 534.855469 529.828125 530.574219 531.535156 527.019531 C 540.347656 508.679688 555.160156 494.257812 569.472656 480.316406 C 573.074219 476.785156 576.828125 473.125 580.335938 469.535156 C 590.570312 459.089844 598.453125 449.617188 606.683594 437.871094 C 608.386719 435.472656 608.875 432.921875 608.089844 430.082031 C 607.3125 427.246094 605.65625 425.277344 602.972656 424.035156 C 595.472656 420.566406 586.800781 420.933594 579.691406 425.027344 C 566.203125 432.800781 556.066406 441.449219 545.355469 450.609375 C 533.714844 460.542969 521.683594 470.8125 505.222656 479.792969 C 481.0625 492.945312 452.617188 517.921875 454.226562 562.226562 C 455.003906 583.398438 452.617188 602.859375 446.820312 622.707031 L 522.554688 622.707031 C 543.351562 580.628906 569.410156 545.457031 604.332031 512.328125 C 615.148438 502.070312 624.011719 490.074219 631.511719 475.640625 C 643.105469 453.183594 652.847656 427.398438 660.492188 399.003906 L 677.441406 335.566406 Z M 558.226562 403.425781 C 560.46875 395.078125 567.671875 389.257812 575.851562 388.425781 L 568.792969 414.902344 C 562.648438 418.644531 557.152344 422.582031 552.035156 426.566406 Z M 597.425781 363.257812 C 599.8125 354.289062 608.089844 348.246094 617.058594 348.171875 L 600.933594 408.328125 C 595.816406 407.195312 590.558594 407.089844 585.441406 407.984375 L 597.425781 363.273438 Z M 687.828125 312.964844 C 683.152344 304.914062 675.699219 299.167969 666.789062 296.78125 C 648.28125 291.832031 629.1875 302.839844 624.273438 321.328125 L 620.863281 334.050781 C 604.199219 332.296875 588.027344 343.03125 583.605469 359.5625 L 579.703125 374.054688 C 563.628906 373.21875 548.683594 383.738281 544.390625 399.730469 L 532.988281 442.261719 L 532.988281 442.390625 C 522.515625 451.300781 512.1875 459.71875 498.355469 467.246094 C 458.664062 488.878906 438.449219 521.917969 439.949219 562.765625 C 440.773438 585.792969 437.804688 605.769531 430.253906 627.546875 C 429.480469 629.730469 429.8125 632.152344 431.183594 634.035156 C 432.542969 635.921875 434.691406 637.042969 437.027344 637.042969 L 527.039062 637.042969 C 529.816406 637.042969 532.296875 635.46875 533.464844 632.988281 C 553.824219 590.71875 579.441406 555.679688 614.171875 522.726562 C 626.15625 511.347656 635.996094 498.109375 644.179688 482.238281 C 656.308594 458.875 666.433594 432.121094 674.28125 402.722656 L 691.277344 339.289062 C 693.707031 330.355469 692.445312 321.015625 687.816406 312.964844 Z M 687.828125 312.964844 " fill-opacity="1" fill-rule="evenodd"/></g></svg>