<?xml version="1.0" encoding="UTF-8"?>
<svg id="Layer_1" data-name="Layer 1" xmlns="http://www.w3.org/2000/svg" viewBox="0 0 595.28 283.46">
  <defs>
    <style>
      .cls-1 {
        fill: #fff;
      }
    </style>
  </defs>
  <path class="cls-1" d="M335.62,189.42c.76,2.03,2.12,3.85,4.07,5.47,1.96,1.62,4.55,2.43,7.79,2.43,3.43,0,6.09-.84,7.97-2.5,1.88-1.67,3.21-3.61,4-5.83.79-2.22,1.78-5.7,2.97-10.47l17.44-70.55c1.05-4.29,1.57-7.41,1.57-9.36,0-2.76-.97-5.06-2.9-6.9-1.93-1.83-4.28-2.75-7.04-2.75s-4.87.71-6.33,2.14c-1.45,1.43-2.48,3.05-3.07,4.86-.6,1.81-1.23,4.31-1.9,7.51l-13.72,61.19-15.51-57.26c-1.28-4.71-2.31-8.1-3.08-10.15-.76-2.05-2.13-3.94-4.11-5.68-1.97-1.74-4.75-2.61-8.32-2.61s-6.32.83-8.37,2.5c-2.05,1.67-3.52,3.65-4.43,5.93-.91,2.29-1.93,5.62-3.08,10.01l-15.36,57.26-13.73-61.19c-1-4.72-2.17-8.32-3.5-10.8-1.34-2.48-3.93-3.72-7.79-3.72-2.81,0-5.17.93-7.08,2.79-1.91,1.86-2.86,4.15-2.86,6.86,0,2.14.53,5.26,1.57,9.36l17.44,70.55c.52,2.1,1.12,4.37,1.79,6.83.67,2.46,1.52,4.58,2.57,6.36,1.05,1.79,2.42,3.17,4.11,4.15,1.69.98,3.85,1.47,6.47,1.47,3.24,0,5.84-.82,7.79-2.47,1.96-1.65,3.33-3.5,4.11-5.58.79-2.07,1.85-5.49,3.18-10.26l17.16-62.83,16.94,62.83c1.38,4.91,2.45,8.38,3.22,10.4M392.88,93.81c-2.05,2.05-3.08,5.36-3.08,9.94v76.84c0,3.38.3,6.14.9,8.26.59,2.12,1.87,3.77,3.82,4.93,1.95,1.17,4.86,1.75,8.72,1.75h27.66c4.81,0,9.14-.31,12.97-.93,3.84-.62,7.42-1.69,10.76-3.22,3.34-1.53,6.41-3.55,9.22-6.08,3.58-3.29,6.51-7.02,8.79-11.19,2.29-4.17,3.98-8.85,5.07-14.04,1.1-5.2,1.65-10.94,1.65-17.23,0-19.06-5.46-33.26-16.37-42.6-4.19-3.67-8.86-6.17-14.01-7.51-5.15-1.33-11.32-2-18.51-2h-27.66c-4.58,0-7.89,1.02-9.94,3.07M425.05,107.53c6.48,0,12.01.71,16.59,2.11,4.57,1.41,8.42,4.68,11.54,9.83,3.12,5.15,4.68,12.89,4.68,23.23,0,14.68-3.55,25.02-10.65,31.02-1.57,1.38-3.43,2.45-5.57,3.22-2.14.76-4.22,1.24-6.22,1.43-2,.19-4.77.29-8.29.29h-16.08v-71.13h14.01ZM542.65,194.71c4.15-.55,7.82-1.49,11.01-2.83,5.1-2.24,9.15-5.7,12.15-10.4,3-4.69,4.5-9.97,4.5-15.84,0-12.68-6.89-21.21-20.66-25.59,10.48-4.86,15.72-12.53,15.72-23.02,0-3.05-.5-5.94-1.5-8.68-1-2.74-2.45-5.25-4.36-7.51-1.91-2.26-4.1-4.14-6.58-5.61-2.91-1.76-6.2-2.96-9.87-3.58-3.67-.62-8.01-.93-13.01-.93h-33.95c-4.53,0-7.81,1.01-9.83,3.04-2.03,2.03-3.04,5.35-3.04,9.97v78.77c0,4.53.99,7.83,2.96,9.9,1.98,2.07,5.28,3.11,9.9,3.11h32.02c5.53,0,10.37-.27,14.51-.82M543.23,152.57c3.72,2.38,5.58,6.22,5.58,11.51,0,10.35-7.18,15.52-21.52,15.52h-22.81v-30.6h22.09c7.39,0,12.94,1.19,16.65,3.58M521.71,106.68c7.72,0,13.46.87,17.23,2.61,3.76,1.74,5.64,5.25,5.64,10.54,0,2.48-.59,4.72-1.78,6.72-1.53,2.82-3.73,4.72-6.61,5.72-2.88,1-6.97,1.5-12.26,1.5h-19.45v-27.09h17.23Z"/>
  <path class="cls-1" d="M137.76,99.88c18.29,0,33.12-14.83,33.12-33.12s-14.83-33.12-33.12-33.12-33.12,14.83-33.12,33.12,14.83,33.12,33.12,33.12"/>
  <path class="cls-1" d="M243.16,112.84c0-8.99-6.99-16.34-15.83-16.91-.37-.03-.74-.04-1.12-.04h-43.44c-5.6,0-10.54,2.72-13.63,6.9l-.04-.03-22.1,33.35,19.52,33.46,26.34-39.79h33.35c.21,0,.41,0,.62-.01,9.07-.33,16.33-7.78,16.33-16.94M166.36,193.28l29.16-44.05c2.89-5.21,8.44-8.73,14.82-8.73h19.58c.38,0,.75.02,1.12.04,8.84.57,15.83,7.93,15.83,16.91s-7.26,16.61-16.33,16.94c-.2,0-.41.01-.61.01h-9.41l-39.43,59.58-.05-.03c-2.92,5.09-8.32,8.6-14.57,8.82-.21,0-.43.01-.64.01-6.06,0-11.41-3.08-14.56-7.77l-.03.02-66.4-105.24h-38.64c-9.36,0-16.95-7.59-16.95-16.95s7.59-16.95,16.95-16.95h49.49c.37,0,.75.01,1.11.04,6.19.4,11.46,4.13,14.08,9.42l55.49,87.95ZM24.96,157.45c0,9.36,7.59,16.95,16.95,16.95h18.38l37.51,60.61h.01c3.02,4.67,8.26,7.77,14.24,7.77.2,0,.41,0,.61-.01,9.07-.32,16.34-7.78,16.34-16.94,0-3.16-.89-6.11-2.39-8.65h.01s-42.48-68.66-42.48-68.66h-.02c-2.8-4.51-7.67-7.62-13.29-7.99-.37-.03-.74-.04-1.12-.04h-27.81c-9.36,0-16.95,7.59-16.95,16.95"/>
  <g>
    <path class="cls-1" d="M267.45,237.17c.29.36.43.84.43,1.44,0,.85-.51,1.57-1.53,2.14-.93.52-1.99.94-3.17,1.25-1.18.32-2.31.47-3.38.47-3.24,0-5.81-.94-7.7-2.8-1.89-1.87-2.84-4.43-2.84-7.67,0-2.06.41-3.89,1.24-5.48.83-1.59,1.99-2.82,3.48-3.7,1.5-.88,3.2-1.32,5.09-1.31,1.81,0,3.39.4,4.74,1.19,1.35.8,2.39,1.93,3.13,3.38.74,1.46,1.11,3.17,1.11,5.15,0,1.18-.52,1.77-1.57,1.77h-12.15c.16,1.89.7,3.28,1.6,4.17s2.22,1.34,3.95,1.34c.88,0,1.66-.11,2.33-.33s1.44-.52,2.29-.91c.82-.43,1.43-.65,1.81-.65.47,0,.84.18,1.13.53ZM255.84,226.45c-.84.88-1.34,2.14-1.51,3.79h9.31c-.05-1.67-.46-2.94-1.23-3.8-.77-.87-1.84-1.3-3.21-1.3-1.4,0-2.52.44-3.36,1.32Z"/>
    <path class="cls-1" d="M288.12,223.59c1.18,1.37,1.77,3.45,1.77,6.22v10.13c0,.77-.23,1.37-.69,1.81-.45.44-1.08.66-1.87.66s-1.43-.23-1.9-.66-.7-1.04-.7-1.81v-9.85c0-1.56-.29-2.7-.88-3.42-.59-.71-1.52-1.07-2.78-1.07-1.48,0-2.67.46-3.56,1.4s-1.34,2.19-1.34,3.75v9.19c0,.77-.24,1.37-.71,1.81s-1.1.66-1.89.66-1.42-.22-1.87-.66c-.45-.44-.68-1.04-.68-1.81v-15.94c0-.71.24-1.29.71-1.73.47-.43,1.1-.66,1.9-.66.71,0,1.3.21,1.75.64.45.42.68.98.68,1.67v1.11c.69-1.13,1.61-1.99,2.76-2.6,1.15-.6,2.46-.9,3.91-.9,2.42,0,4.22.69,5.4,2.06Z"/>
    <path class="cls-1" d="M306.41,240.45c0,.66-.27,1.16-.8,1.5s-1.3.49-2.29.43l-1.11-.08c-4.62-.33-6.92-2.8-6.92-7.42v-8.98s-2.05,0-2.05,0c-.74,0-1.31-.17-1.71-.5-.4-.33-.6-.81-.6-1.44s.2-1.11.6-1.44c.4-.33.97-.5,1.71-.49h2.06v-3.79c0-.74.24-1.33.7-1.77.47-.44,1.1-.66,1.9-.66s1.39.22,1.85.66c.47.45.7,1.03.7,1.77v3.79s3.5,0,3.5,0c.74,0,1.31.16,1.71.5.4.33.59.81.59,1.44s-.2,1.11-.6,1.44c-.4.33-.97.49-1.71.49h-3.5v9.35c0,2.03.92,3.12,2.79,3.26l1.11.08c1.37.08,2.06.7,2.06,1.85Z"/>
    <path class="cls-1" d="M320.8,222.08c.41.36.62.9.62,1.61s-.18,1.29-.53,1.64c-.36.36-1,.59-1.94.7l-1.24.12c-1.62.16-2.81.71-3.56,1.64-.76.94-1.14,2.1-1.14,3.5v8.66c0,.79-.25,1.41-.75,1.83-.5.42-1.11.64-1.85.64s-1.35-.21-1.83-.64-.72-1.04-.72-1.83v-15.94c0-.77.25-1.36.73-1.77s1.08-.62,1.79-.62,1.29.2,1.73.6c.44.4.66.97.66,1.71v1.65c.52-1.21,1.3-2.14,2.33-2.8,1.03-.66,2.18-1.03,3.44-1.11l.58-.04c.71-.05,1.28.1,1.69.45Z"/>
    <path class="cls-1" d="M339.06,237.21c.29.36.43.84.43,1.44,0,.85-.51,1.57-1.53,2.14-.93.52-1.99.94-3.17,1.25-1.18.32-2.31.47-3.38.47-3.24,0-5.81-.94-7.7-2.8-1.89-1.87-2.84-4.43-2.84-7.67,0-2.06.41-3.88,1.24-5.48.83-1.59,1.99-2.83,3.48-3.71,1.5-.88,3.2-1.31,5.09-1.31s3.39.4,4.74,1.2c1.35.79,2.39,1.92,3.13,3.38.74,1.46,1.11,3.17,1.11,5.15,0,1.18-.52,1.77-1.57,1.77h-12.15c.16,1.89.7,3.28,1.6,4.17.91.9,2.22,1.34,3.95,1.34.88,0,1.66-.11,2.33-.33.67-.22,1.44-.52,2.29-.9.82-.44,1.43-.66,1.81-.66.47,0,.84.18,1.13.53ZM327.45,226.5c-.84.88-1.34,2.14-1.51,3.79h9.31c-.05-1.66-.46-2.94-1.23-3.8-.77-.87-1.84-1.3-3.21-1.3s-2.52.44-3.36,1.32Z"/>
    <path class="cls-1" d="M358.85,222.89c1.36.88,2.42,2.12,3.17,3.73.75,1.61,1.13,3.46,1.13,5.54,0,2.09-.38,3.92-1.14,5.48-.75,1.57-1.81,2.77-3.15,3.63-1.35.85-2.9,1.27-4.66,1.27-1.43,0-2.71-.3-3.83-.9-1.13-.61-1.99-1.45-2.59-2.52v8.4c0,.71-.24,1.28-.71,1.69s-1.08.62-1.85.62-1.39-.22-1.87-.66c-.48-.44-.72-1.01-.72-1.73v-23.36c.01-.74.24-1.33.7-1.77.45-.44,1.06-.66,1.83-.66s1.39.22,1.85.66c.46.44.7,1.03.7,1.77v1.03c.61-1.12,1.48-2,2.62-2.61,1.14-.62,2.44-.92,3.89-.92,1.73,0,3.28.44,4.63,1.32ZM356.63,236.88c.91-1.11,1.36-2.69,1.36-4.72,0-2.08-.45-3.71-1.36-4.86-.9-1.16-2.17-1.74-3.79-1.74s-2.92.56-3.81,1.69c-.89,1.13-1.34,2.73-1.34,4.82,0,2.06.45,3.65,1.33,4.78.89,1.13,2.16,1.69,3.81,1.69s2.88-.56,3.79-1.66Z"/>
    <path class="cls-1" d="M379.1,222.12c.41.36.62.89.62,1.61s-.18,1.29-.53,1.65c-.36.36-1,.59-1.94.7l-1.24.12c-1.62.16-2.81.71-3.56,1.65-.76.94-1.14,2.1-1.14,3.5v8.66c0,.79-.25,1.41-.75,1.83-.5.42-1.11.63-1.85.63s-1.35-.21-1.83-.64c-.48-.42-.72-1.04-.72-1.83v-15.94c0-.77.25-1.36.73-1.77s1.08-.62,1.79-.62,1.29.2,1.73.6.66.97.66,1.71v1.65c.52-1.21,1.3-2.14,2.33-2.8,1.03-.66,2.18-1.03,3.44-1.11l.58-.04c.71-.05,1.28.1,1.69.45Z"/>
    <path class="cls-1" d="M397.36,237.25c.29.36.43.84.43,1.44,0,.85-.51,1.57-1.53,2.14-.93.52-1.99.94-3.17,1.26-1.18.32-2.31.47-3.38.47-3.24,0-5.81-.94-7.7-2.8-1.89-1.87-2.84-4.42-2.84-7.66,0-2.06.41-3.89,1.24-5.48.83-1.59,1.99-2.83,3.48-3.71,1.5-.87,3.2-1.31,5.09-1.31s3.39.4,4.74,1.2c1.35.79,2.39,1.92,3.13,3.38.74,1.46,1.11,3.17,1.11,5.15,0,1.18-.52,1.77-1.57,1.77h-12.15c.16,1.89.7,3.29,1.6,4.18s2.22,1.34,3.95,1.34c.88,0,1.66-.11,2.33-.32.67-.22,1.44-.52,2.29-.91.82-.44,1.43-.66,1.81-.66.47,0,.84.18,1.13.53ZM385.75,226.53c-.84.88-1.34,2.14-1.51,3.79h9.31c-.05-1.67-.46-2.94-1.23-3.8-.77-.87-1.84-1.3-3.21-1.3s-2.52.44-3.36,1.32Z"/>
    <path class="cls-1" d="M418.03,223.67c1.18,1.37,1.77,3.45,1.77,6.23v10.13c0,.77-.23,1.37-.69,1.81-.45.44-1.08.66-1.87.66s-1.43-.22-1.9-.66-.7-1.04-.7-1.81v-9.85c0-1.56-.29-2.7-.88-3.42-.59-.71-1.52-1.08-2.78-1.08-1.48,0-2.67.47-3.56,1.4-.89.93-1.34,2.19-1.34,3.75v9.19c0,.77-.24,1.37-.71,1.81-.47.43-1.1.66-1.89.66s-1.42-.22-1.87-.66c-.45-.44-.68-1.04-.68-1.81v-15.94c0-.71.24-1.29.71-1.73.47-.44,1.1-.66,1.9-.66.71,0,1.3.21,1.75.64.45.42.68.98.68,1.67v1.11c.69-1.13,1.61-1.99,2.76-2.6,1.15-.6,2.46-.9,3.91-.9,2.42,0,4.22.69,5.4,2.06Z"/>
    <path class="cls-1" d="M440.87,237.28c.29.36.43.84.43,1.44,0,.85-.51,1.57-1.53,2.14-.93.52-1.99.94-3.17,1.26-1.18.32-2.31.47-3.38.47-3.24,0-5.81-.93-7.7-2.8-1.89-1.87-2.84-4.42-2.84-7.66,0-2.06.41-3.89,1.24-5.48.83-1.59,1.99-2.83,3.48-3.7,1.5-.88,3.2-1.32,5.09-1.32,1.81,0,3.39.4,4.74,1.2,1.35.79,2.39,1.92,3.13,3.38s1.11,3.17,1.11,5.15c0,1.18-.52,1.77-1.57,1.77h-12.15c.16,1.89.7,3.29,1.6,4.18.91.89,2.22,1.34,3.95,1.34.88,0,1.66-.11,2.33-.33s1.44-.52,2.29-.91c.82-.44,1.43-.66,1.81-.66.47,0,.84.18,1.13.54ZM429.26,226.56c-.84.88-1.34,2.14-1.51,3.79h9.31c-.05-1.67-.46-2.94-1.23-3.8-.77-.87-1.84-1.3-3.21-1.3-1.4,0-2.52.44-3.36,1.32Z"/>
    <path class="cls-1" d="M462.24,222.38c.47.44.7,1.03.7,1.77v15.99c-.01.71-.25,1.29-.73,1.73-.48.44-1.11.66-1.87.66s-1.33-.21-1.77-.62-.66-.98-.66-1.69v-1.03c-.63,1.1-1.48,1.94-2.56,2.53-1.07.58-2.28.88-3.63.88-4.94,0-7.42-2.77-7.41-8.32v-10.14c0-.74.24-1.33.71-1.77.47-.44,1.08-.66,1.85-.66.8,0,1.43.23,1.89.66.47.44.7,1.03.7,1.77v10.18c0,1.43.28,2.49.86,3.17.58.69,1.48,1.03,2.72,1.03,1.43,0,2.57-.47,3.44-1.42.87-.95,1.3-2.2,1.3-3.77v-9.19c0-.74.24-1.33.71-1.77.47-.44,1.08-.66,1.85-.66s1.43.23,1.89.66Z"/>
    <path class="cls-1" d="M480,222.18c.41.36.62.89.62,1.61s-.18,1.29-.53,1.65c-.36.36-1,.59-1.94.7l-1.24.12c-1.62.16-2.81.71-3.56,1.64-.76.94-1.14,2.1-1.14,3.5v8.66c0,.79-.25,1.41-.75,1.83-.5.42-1.11.64-1.85.64s-1.35-.22-1.83-.64c-.48-.42-.72-1.04-.72-1.83v-15.94c0-.77.25-1.36.73-1.77.48-.41,1.08-.61,1.79-.61s1.29.2,1.73.6c.44.4.66.97.66,1.71v1.65c.52-1.21,1.3-2.14,2.33-2.8,1.03-.66,2.18-1.03,3.44-1.11l.58-.04c.71-.05,1.28.1,1.69.45Z"/>
    <path class="cls-1" d="M498.95,218.24c-.58.69-.87,1.68-.87,2.97v.95h3.5c1.54,0,2.31.65,2.31,1.94,0,1.29-.77,1.93-2.31,1.93h-3.5v14.05c-.01.79-.25,1.4-.73,1.81-.48.41-1.09.61-1.83.61s-1.36-.21-1.85-.62c-.5-.41-.74-1.02-.74-1.81v-14.05s-2.05,0-2.05,0c-1.54,0-2.31-.65-2.31-1.94,0-1.29.77-1.93,2.31-1.93h2.06v-.29c0-2.59.68-4.61,2.04-6.08,1.36-1.47,3.27-2.3,5.75-2.49l1.07-.08c1.1-.08,1.87.04,2.33.36.45.32.68.8.68,1.46,0,1.18-.67,1.84-2.02,1.97l-1.07.08c-1.26.08-2.18.47-2.76,1.15Z"/>
    <path class="cls-1" d="M522.84,222.41c.47.44.7,1.03.7,1.77v15.99c-.01.71-.25,1.29-.73,1.73-.48.44-1.11.66-1.87.66s-1.33-.21-1.77-.62-.66-.98-.66-1.69v-1.03c-.63,1.1-1.48,1.94-2.56,2.53-1.07.59-2.28.88-3.63.88-4.94,0-7.42-2.77-7.41-8.32v-10.14c0-.74.24-1.33.71-1.77.47-.44,1.08-.66,1.85-.66s1.43.22,1.89.66c.47.44.7,1.03.7,1.77v10.18c0,1.43.28,2.49.86,3.18.58.69,1.48,1.03,2.72,1.03,1.43,0,2.57-.48,3.44-1.42.87-.94,1.3-2.2,1.3-3.77v-9.19c0-.74.24-1.33.71-1.77.47-.44,1.08-.66,1.85-.66s1.43.22,1.89.66Z"/>
    <path class="cls-1" d="M544.76,223.74c1.18,1.37,1.77,3.45,1.77,6.23v10.13c0,.77-.23,1.37-.69,1.81-.45.44-1.08.66-1.87.66s-1.43-.22-1.9-.66-.7-1.04-.7-1.81v-9.85c0-1.56-.29-2.7-.88-3.42-.59-.71-1.52-1.07-2.78-1.08-1.48,0-2.67.47-3.56,1.4-.89.93-1.34,2.19-1.34,3.75v9.19c0,.77-.24,1.37-.71,1.81s-1.1.66-1.89.66-1.42-.22-1.87-.66c-.45-.44-.68-1.04-.68-1.81v-15.94c0-.71.24-1.29.71-1.73.47-.44,1.1-.66,1.9-.66.71,0,1.3.22,1.75.64.45.42.68.98.68,1.67v1.11c.69-1.13,1.61-1.99,2.76-2.6,1.15-.6,2.46-.9,3.91-.9,2.42,0,4.22.69,5.4,2.06Z"/>
    <path class="cls-1" d="M569.24,213.75c.49.44.74,1.02.74,1.73v24.64c-.02.74-.25,1.33-.72,1.77-.47.44-1.08.66-1.85.66s-1.39-.22-1.85-.66c-.47-.44-.7-1.03-.7-1.77v-1.03c-.61,1.13-1.48,2.01-2.62,2.64-1.14.63-2.44.95-3.89.94-1.73,0-3.28-.44-4.64-1.32-1.36-.88-2.41-2.13-3.17-3.73-.75-1.61-1.13-3.46-1.13-5.54,0-2.08.38-3.91,1.13-5.48.76-1.57,1.81-2.77,3.15-3.62s2.9-1.27,4.66-1.27c1.45,0,2.74.31,3.87.91,1.12.61,1.99,1.46,2.59,2.56v-9.77c0-.69.23-1.24.69-1.67.45-.42,1.06-.63,1.83-.63s1.4.22,1.9.66ZM563.52,236.98c.89-1.13,1.34-2.73,1.34-4.82,0-2.08-.45-3.69-1.34-4.8-.89-1.11-2.15-1.67-3.77-1.67-1.65,0-2.93.55-3.83,1.64-.91,1.1-1.36,2.68-1.36,4.74,0,2.09.45,3.71,1.36,4.86.91,1.15,2.17,1.73,3.79,1.74,1.65,0,2.92-.56,3.81-1.69Z"/>
  </g>
</svg>