<svg xmlns="http://www.w3.org/2000/svg" xmlns:xlink="http://www.w3.org/1999/xlink" width="1080" zoomAndPan="magnify" viewBox="0 0 810 809.999993" height="1080" preserveAspectRatio="xMidYMid meet" version="1.0"><defs><clipPath id="82599710f1"><path d="M 516 154.960938 L 673.503906 154.960938 L 673.503906 312 L 516 312 Z M 516 154.960938 " clip-rule="nonzero"/></clipPath><clipPath id="026eaebe8b"><path d="M 516 498 L 673.503906 498 L 673.503906 655 L 516 655 Z M 516 498 " clip-rule="nonzero"/></clipPath><clipPath id="db623bae12"><path d="M 136.503906 498 L 294 498 L 294 655 L 136.503906 655 Z M 136.503906 498 " clip-rule="nonzero"/></clipPath><clipPath id="de78c6c1d6"><path d="M 136.503906 154.960938 L 294 154.960938 L 294 312 L 136.503906 312 Z M 136.503906 154.960938 " clip-rule="nonzero"/></clipPath><clipPath id="346dd10fff"><path d="M 405 0 C 181.324219 0 0 181.324219 0 405 C 0 628.675781 181.324219 810 405 810 C 628.675781 810 810 628.675781 810 405 C 810 181.324219 628.675781 0 405 0 Z M 405 0 " clip-rule="nonzero"/></clipPath></defs><path fill="#147146" d="M 404.941406 509.832031 C 347.109375 509.832031 300.058594 462.777344 300.058594 404.945312 C 300.058594 347.113281 347.109375 300.0625 404.941406 300.0625 C 462.777344 300.0625 509.828125 347.113281 509.828125 404.945312 C 509.828125 462.777344 462.777344 509.832031 404.941406 509.832031 Z M 404.941406 313.050781 C 354.273438 313.050781 313.050781 354.273438 313.050781 404.945312 C 313.050781 455.617188 354.273438 496.839844 404.941406 496.839844 C 455.613281 496.839844 496.835938 455.617188 496.835938 404.945312 C 496.835938 354.273438 455.613281 313.050781 404.941406 313.050781 Z M 404.941406 313.050781 " fill-opacity="1" fill-rule="nonzero"/><path fill="#147146" d="M 405.3125 419.765625 C 380.953125 419.765625 361.136719 399.949219 361.136719 375.589844 C 361.136719 351.230469 380.953125 331.414062 405.3125 331.414062 C 429.667969 331.414062 449.488281 351.230469 449.488281 375.589844 C 449.488281 399.949219 429.667969 419.765625 405.3125 419.765625 Z M 405.3125 344.40625 C 388.117188 344.40625 374.128906 358.394531 374.128906 375.589844 C 374.128906 392.785156 388.117188 406.773438 405.3125 406.773438 C 422.507812 406.773438 436.496094 392.785156 436.496094 375.589844 C 436.496094 358.394531 422.507812 344.40625 405.3125 344.40625 Z M 405.3125 344.40625 " fill-opacity="1" fill-rule="nonzero"/><path fill="#147146" d="M 452.738281 462.644531 L 357.886719 462.644531 C 354.300781 462.644531 351.390625 459.734375 351.390625 456.148438 C 351.390625 428.921875 373.542969 406.773438 400.765625 406.773438 L 409.859375 406.773438 C 437.082031 406.773438 459.234375 428.921875 459.234375 456.148438 C 459.234375 459.734375 456.324219 462.644531 452.738281 462.644531 Z M 364.964844 449.652344 L 445.660156 449.652344 C 442.589844 432.679688 427.703125 419.765625 409.859375 419.765625 L 400.765625 419.765625 C 382.921875 419.765625 368.035156 432.679688 364.964844 449.652344 Z M 364.964844 449.652344 " fill-opacity="1" fill-rule="nonzero"/><path fill="#147146" d="M 404.941406 313.050781 C 401.355469 313.050781 398.449219 310.144531 398.449219 306.558594 L 398.449219 267.632812 C 398.449219 264.046875 401.355469 261.136719 404.941406 261.136719 C 408.53125 261.136719 411.4375 264.046875 411.4375 267.632812 L 411.4375 306.558594 C 411.4375 310.144531 408.53125 313.050781 404.941406 313.050781 Z M 404.941406 313.050781 " fill-opacity="1" fill-rule="nonzero"/><path fill="#147146" d="M 335.371094 341.871094 C 333.710938 341.871094 332.046875 341.234375 330.777344 339.96875 L 269.175781 278.367188 C 266.640625 275.828125 266.640625 271.714844 269.175781 269.179688 C 271.710938 266.644531 275.828125 266.644531 278.363281 269.179688 L 339.964844 330.78125 C 342.5 333.320312 342.5 337.429688 339.964844 339.96875 C 338.699219 341.234375 337.035156 341.871094 335.371094 341.871094 Z M 335.371094 341.871094 " fill-opacity="1" fill-rule="nonzero"/><path fill="#147146" d="M 306.554688 411.441406 L 267.632812 411.441406 C 264.042969 411.441406 261.136719 408.53125 261.136719 404.945312 C 261.136719 401.359375 264.042969 398.449219 267.632812 398.449219 L 306.554688 398.449219 C 310.140625 398.449219 313.050781 401.359375 313.050781 404.945312 C 313.050781 408.53125 310.140625 411.441406 306.554688 411.441406 Z M 306.554688 411.441406 " fill-opacity="1" fill-rule="nonzero"/><path fill="#147146" d="M 273.769531 542.613281 C 272.105469 542.613281 270.445312 541.980469 269.175781 540.710938 C 266.640625 538.175781 266.640625 534.0625 269.175781 531.527344 L 330.777344 469.921875 C 333.316406 467.386719 337.429688 467.386719 339.964844 469.921875 C 342.5 472.460938 342.5 476.574219 339.964844 479.109375 L 278.363281 540.710938 C 277.09375 541.980469 275.433594 542.613281 273.769531 542.613281 Z M 273.769531 542.613281 " fill-opacity="1" fill-rule="nonzero"/><path fill="#147146" d="M 404.941406 548.753906 C 401.355469 548.753906 398.449219 545.84375 398.449219 542.257812 L 398.449219 503.335938 C 398.449219 499.75 401.355469 496.839844 404.941406 496.839844 C 408.53125 496.839844 411.4375 499.75 411.4375 503.335938 L 411.4375 542.257812 C 411.4375 545.847656 408.53125 548.753906 404.941406 548.753906 Z M 404.941406 548.753906 " fill-opacity="1" fill-rule="nonzero"/><path fill="#147146" d="M 536.117188 542.613281 C 534.453125 542.613281 532.792969 541.980469 531.523438 540.710938 L 469.921875 479.109375 C 467.382812 476.570312 467.382812 472.460938 469.921875 469.921875 C 472.457031 467.386719 476.570312 467.386719 479.105469 469.921875 L 540.710938 531.527344 C 543.246094 534.0625 543.246094 538.175781 540.710938 540.710938 C 539.441406 541.980469 537.777344 542.613281 536.117188 542.613281 Z M 536.117188 542.613281 " fill-opacity="1" fill-rule="nonzero"/><path fill="#147146" d="M 542.257812 411.441406 L 503.332031 411.441406 C 499.746094 411.441406 496.835938 408.53125 496.835938 404.945312 C 496.835938 401.359375 499.746094 398.449219 503.332031 398.449219 L 542.257812 398.449219 C 545.84375 398.449219 548.753906 401.359375 548.753906 404.945312 C 548.753906 408.53125 545.84375 411.441406 542.257812 411.441406 Z M 542.257812 411.441406 " fill-opacity="1" fill-rule="nonzero"/><path fill="#147146" d="M 474.515625 341.871094 C 472.851562 341.871094 471.1875 341.234375 469.921875 339.96875 C 467.382812 337.429688 467.382812 333.320312 469.921875 330.78125 L 531.523438 269.179688 C 534.058594 266.644531 538.175781 266.644531 540.710938 269.179688 C 543.246094 271.714844 543.246094 275.828125 540.710938 278.367188 L 479.105469 339.96875 C 477.839844 341.234375 476.175781 341.871094 474.515625 341.871094 Z M 474.515625 341.871094 " fill-opacity="1" fill-rule="nonzero"/><path fill="#147146" d="M 404.402344 622.277344 C 381.445312 622.277344 362.765625 603.597656 362.765625 580.640625 C 362.765625 557.683594 381.441406 539.003906 404.402344 539.003906 C 427.359375 539.003906 446.039062 557.683594 446.039062 580.640625 C 446.039062 603.597656 427.359375 622.277344 404.402344 622.277344 Z M 404.402344 551.996094 C 388.609375 551.996094 375.757812 564.84375 375.757812 580.640625 C 375.757812 596.433594 388.605469 609.285156 404.402344 609.285156 C 420.195312 609.285156 433.046875 596.433594 433.046875 580.640625 C 433.046875 564.84375 420.195312 551.996094 404.402344 551.996094 Z M 404.402344 551.996094 " fill-opacity="1" fill-rule="nonzero"/><path fill="#147146" d="M 582.800781 446.582031 C 559.84375 446.582031 541.167969 427.902344 541.167969 404.945312 C 541.167969 381.988281 559.84375 363.308594 582.800781 363.308594 C 605.757812 363.308594 624.4375 381.988281 624.4375 404.945312 C 624.4375 427.902344 605.757812 446.582031 582.800781 446.582031 Z M 582.800781 376.300781 C 567.007812 376.300781 554.15625 389.152344 554.15625 404.945312 C 554.15625 420.738281 567.007812 433.589844 582.800781 433.589844 C 598.59375 433.589844 611.445312 420.738281 611.445312 404.945312 C 611.445312 389.152344 598.59375 376.300781 582.800781 376.300781 Z M 582.800781 376.300781 " fill-opacity="1" fill-rule="nonzero"/><path fill="#147146" d="M 232.492188 447.121094 C 209.535156 447.121094 190.855469 428.441406 190.855469 405.484375 C 190.855469 382.527344 209.535156 363.851562 232.492188 363.851562 C 255.449219 363.851562 274.128906 382.527344 274.128906 405.484375 C 274.125 428.441406 255.449219 447.121094 232.492188 447.121094 Z M 232.492188 376.84375 C 216.699219 376.84375 203.847656 389.691406 203.847656 405.484375 C 203.847656 421.277344 216.699219 434.128906 232.492188 434.128906 C 248.285156 434.128906 261.136719 421.28125 261.136719 405.484375 C 261.136719 389.691406 248.285156 376.84375 232.492188 376.84375 Z M 232.492188 376.84375 " fill-opacity="1" fill-rule="nonzero"/><path fill="#147146" d="M 404.402344 273.046875 C 381.445312 273.046875 362.765625 254.371094 362.765625 231.414062 C 362.765625 208.453125 381.441406 189.777344 404.402344 189.777344 C 427.359375 189.777344 446.039062 208.453125 446.039062 231.414062 C 446.039062 254.371094 427.359375 273.046875 404.402344 273.046875 Z M 404.402344 202.769531 C 388.609375 202.769531 375.757812 215.617188 375.757812 231.414062 C 375.757812 247.207031 388.605469 260.054688 404.402344 260.054688 C 420.195312 260.054688 433.046875 247.207031 433.046875 231.414062 C 433.046875 215.617188 420.195312 202.769531 404.402344 202.769531 Z M 404.402344 202.769531 " fill-opacity="1" fill-rule="nonzero"/><path fill="#147146" d="M 631.523438 272.554688 L 558.375 272.554688 C 554.484375 272.554688 551.328125 269.398438 551.328125 265.507812 L 551.328125 263.949219 C 551.328125 244.367188 567.261719 228.433594 586.84375 228.433594 L 603.054688 228.433594 C 622.636719 228.433594 638.570312 244.367188 638.570312 263.949219 L 638.570312 265.507812 C 638.566406 269.402344 635.414062 272.554688 631.523438 272.554688 Z M 566.128906 258.464844 L 623.765625 258.464844 C 621.335938 249.300781 612.972656 242.527344 603.054688 242.527344 L 586.839844 242.527344 C 576.921875 242.527344 568.558594 249.300781 566.128906 258.464844 Z M 566.128906 258.464844 " fill-opacity="1" fill-rule="nonzero"/><g clip-path="url(#82599710f1)"><path fill="#147146" d="M 594.949219 311.769531 C 565.152344 311.769531 538.367188 295.277344 524.945312 268.707031 C 524.882812 268.59375 524.820312 268.476562 524.761719 268.359375 C 519.296875 257.429688 516.523438 245.648438 516.523438 233.347656 C 516.523438 229.394531 516.820312 225.464844 517.394531 221.667969 C 520.132812 203.285156 529.417969 186.398438 543.523438 174.136719 C 557.777344 161.746094 576.039062 154.925781 594.949219 154.925781 C 613.855469 154.925781 632.121094 161.746094 646.371094 174.136719 C 660.480469 186.398438 669.761719 203.285156 672.507812 221.6875 C 673.078125 225.476562 673.371094 229.398438 673.371094 233.347656 C 673.371094 245.648438 670.601562 257.429688 665.136719 268.359375 C 665.078125 268.476562 665.015625 268.59375 664.949219 268.707031 C 651.527344 295.28125 624.742188 311.769531 594.949219 311.769531 Z M 537.203125 261.738281 C 537.265625 261.84375 537.320312 261.953125 537.378906 262.0625 C 548.339844 284.03125 570.398438 297.679688 594.949219 297.679688 C 619.496094 297.679688 641.554688 284.03125 652.515625 262.0625 C 652.574219 261.953125 652.632812 261.84375 652.691406 261.734375 C 657.0625 252.871094 659.28125 243.320312 659.28125 233.347656 C 659.28125 230.097656 659.042969 226.878906 658.570312 223.78125 C 658.570312 223.777344 658.570312 223.769531 658.566406 223.765625 C 653.914062 192.550781 626.5625 169.015625 594.949219 169.015625 C 563.332031 169.015625 535.980469 192.550781 531.328125 223.765625 C 530.851562 226.878906 530.617188 230.097656 530.617188 233.347656 C 530.617188 243.320312 532.832031 252.871094 537.203125 261.738281 Z M 658.832031 265.207031 L 658.84375 265.207031 Z M 594.949219 242.527344 C 577.480469 242.527344 563.269531 228.3125 563.269531 210.835938 C 563.269531 193.367188 577.480469 179.15625 594.949219 179.15625 C 612.417969 179.15625 626.625 193.367188 626.625 210.835938 C 626.625 211.523438 626.601562 212.214844 626.554688 212.902344 C 625.492188 229.511719 611.609375 242.527344 594.949219 242.527344 Z M 594.949219 193.246094 C 585.25 193.246094 577.359375 201.136719 577.359375 210.835938 C 577.359375 220.542969 585.25 228.4375 594.949219 228.4375 C 604.195312 228.4375 611.902344 221.214844 612.492188 211.996094 C 612.519531 211.605469 612.535156 211.222656 612.535156 210.835938 C 612.535156 201.136719 604.644531 193.246094 594.949219 193.246094 Z M 594.949219 193.246094 " fill-opacity="1" fill-rule="nonzero"/></g><path fill="#147146" d="M 631.523438 615.753906 L 558.375 615.753906 C 554.484375 615.753906 551.328125 612.597656 551.328125 608.707031 L 551.328125 607.148438 C 551.328125 587.566406 567.261719 571.632812 586.84375 571.632812 L 603.054688 571.632812 C 622.636719 571.632812 638.570312 587.566406 638.570312 607.148438 L 638.570312 608.707031 C 638.566406 612.597656 635.414062 615.753906 631.523438 615.753906 Z M 566.128906 601.664062 L 623.765625 601.664062 C 621.335938 592.5 612.972656 585.722656 603.054688 585.722656 L 586.839844 585.722656 C 576.921875 585.722656 568.558594 592.5 566.128906 601.664062 Z M 566.128906 601.664062 " fill-opacity="1" fill-rule="nonzero"/><g clip-path="url(#026eaebe8b)"><path fill="#147146" d="M 594.949219 654.96875 C 565.152344 654.96875 538.367188 638.480469 524.945312 611.90625 C 524.882812 611.792969 524.820312 611.675781 524.757812 611.558594 C 519.296875 600.628906 516.523438 588.847656 516.523438 576.546875 C 516.523438 572.59375 516.820312 568.664062 517.394531 564.867188 C 520.132812 546.484375 529.417969 529.597656 543.523438 517.335938 C 557.777344 504.945312 576.039062 498.125 594.949219 498.125 C 613.855469 498.125 632.121094 504.945312 646.371094 517.335938 C 660.476562 529.59375 669.757812 546.476562 672.503906 564.871094 C 673.078125 568.664062 673.371094 572.59375 673.371094 576.546875 C 673.371094 588.847656 670.601562 600.628906 665.136719 611.558594 C 665.078125 611.679688 665.015625 611.792969 664.949219 611.910156 C 651.527344 638.480469 624.742188 654.96875 594.949219 654.96875 Z M 537.203125 604.9375 C 537.265625 605.042969 537.320312 605.152344 537.378906 605.261719 C 548.339844 627.230469 570.398438 640.875 594.949219 640.875 C 619.496094 640.875 641.554688 627.230469 652.515625 605.261719 C 652.574219 605.152344 652.628906 605.042969 652.691406 604.9375 C 657.0625 596.070312 659.28125 586.519531 659.28125 576.542969 C 659.28125 573.296875 659.042969 570.078125 658.570312 566.980469 C 658.570312 566.976562 658.570312 566.96875 658.566406 566.960938 C 653.914062 535.75 626.5625 512.210938 594.949219 512.210938 C 563.332031 512.210938 535.980469 535.75 531.328125 566.960938 C 530.851562 570.078125 530.617188 573.296875 530.617188 576.542969 C 530.617188 586.519531 532.832031 596.070312 537.203125 604.9375 Z M 658.832031 608.40625 L 658.84375 608.40625 Z M 594.949219 585.726562 C 577.480469 585.726562 563.269531 571.507812 563.269531 554.035156 C 563.269531 536.566406 577.480469 522.355469 594.949219 522.355469 C 612.417969 522.355469 626.625 536.566406 626.625 554.035156 C 626.625 554.726562 626.601562 555.414062 626.554688 556.101562 C 625.492188 572.710938 611.609375 585.726562 594.949219 585.726562 Z M 594.949219 536.449219 C 585.25 536.449219 577.359375 544.335938 577.359375 554.035156 C 577.359375 563.742188 585.25 571.636719 594.949219 571.636719 C 604.195312 571.636719 611.902344 564.414062 612.492188 555.195312 C 612.519531 554.804688 612.535156 554.417969 612.535156 554.035156 C 612.535156 544.335938 604.644531 536.449219 594.949219 536.449219 Z M 594.949219 536.449219 " fill-opacity="1" fill-rule="nonzero"/></g><path fill="#147146" d="M 251.511719 615.753906 L 178.363281 615.753906 C 174.472656 615.753906 171.320312 612.597656 171.320312 608.707031 L 171.320312 607.148438 C 171.320312 587.566406 187.25 571.632812 206.832031 571.632812 L 223.046875 571.632812 C 242.628906 571.632812 258.558594 587.566406 258.558594 607.148438 L 258.558594 608.707031 C 258.558594 612.597656 255.402344 615.753906 251.511719 615.753906 Z M 186.121094 601.664062 L 243.753906 601.664062 C 241.328125 592.5 232.960938 585.722656 223.042969 585.722656 L 206.832031 585.722656 C 196.914062 585.722656 188.550781 592.5 186.121094 601.664062 Z M 186.121094 601.664062 " fill-opacity="1" fill-rule="nonzero"/><g clip-path="url(#db623bae12)"><path fill="#147146" d="M 214.9375 654.96875 C 185.144531 654.96875 158.355469 638.476562 144.933594 611.898438 C 144.871094 611.785156 144.808594 611.675781 144.753906 611.558594 C 139.289062 600.628906 136.515625 588.847656 136.515625 576.546875 C 136.515625 572.589844 136.808594 568.660156 137.382812 564.867188 C 140.125 546.484375 149.40625 529.597656 163.515625 517.335938 C 177.769531 504.945312 196.03125 498.125 214.941406 498.125 C 233.847656 498.125 252.109375 504.945312 266.363281 517.335938 C 280.472656 529.597656 289.75 546.484375 292.496094 564.878906 C 293.070312 568.667969 293.363281 572.59375 293.363281 576.546875 C 293.363281 588.847656 290.589844 600.628906 285.125 611.558594 C 285.066406 611.675781 285.007812 611.789062 284.945312 611.898438 C 271.519531 638.472656 244.734375 654.96875 214.9375 654.96875 Z M 157.199219 604.941406 C 157.257812 605.046875 157.3125 605.152344 157.367188 605.261719 C 168.332031 627.230469 190.390625 640.875 214.9375 640.875 C 239.484375 640.875 261.542969 627.230469 272.507812 605.261719 C 272.5625 605.152344 272.617188 605.046875 272.675781 604.941406 C 277.050781 596.074219 279.269531 586.523438 279.269531 576.542969 C 279.269531 573.292969 279.03125 570.074219 278.558594 566.980469 C 278.558594 566.976562 278.558594 566.96875 278.558594 566.960938 C 273.902344 535.75 246.550781 512.210938 214.9375 512.210938 C 183.320312 512.210938 155.96875 535.75 151.316406 566.960938 C 150.84375 570.074219 150.605469 573.292969 150.605469 576.542969 C 150.609375 586.523438 152.824219 596.074219 157.199219 604.941406 Z M 278.824219 608.40625 L 278.835938 608.40625 Z M 214.9375 585.726562 C 197.472656 585.726562 183.257812 571.507812 183.257812 554.035156 C 183.257812 536.566406 197.46875 522.355469 214.9375 522.355469 C 232.40625 522.355469 246.617188 536.566406 246.617188 554.035156 C 246.617188 554.722656 246.589844 555.402344 246.546875 556.089844 C 245.484375 572.710938 231.601562 585.726562 214.9375 585.726562 Z M 214.9375 536.449219 C 205.242188 536.449219 197.351562 544.335938 197.351562 554.035156 C 197.351562 563.742188 205.242188 571.636719 214.9375 571.636719 C 224.1875 571.636719 231.894531 564.414062 232.484375 555.195312 C 232.507812 554.8125 232.527344 554.425781 232.527344 554.035156 C 232.527344 544.335938 224.636719 536.449219 214.9375 536.449219 Z M 214.9375 536.449219 " fill-opacity="1" fill-rule="nonzero"/></g><path fill="#147146" d="M 251.511719 272.554688 L 178.363281 272.554688 C 174.472656 272.554688 171.320312 269.398438 171.320312 265.507812 L 171.320312 263.949219 C 171.320312 244.367188 187.25 228.433594 206.832031 228.433594 L 223.046875 228.433594 C 242.628906 228.433594 258.558594 244.367188 258.558594 263.949219 L 258.558594 265.507812 C 258.558594 269.402344 255.402344 272.554688 251.511719 272.554688 Z M 186.121094 258.464844 L 243.753906 258.464844 C 241.328125 249.300781 232.960938 242.527344 223.042969 242.527344 L 206.832031 242.527344 C 196.914062 242.527344 188.550781 249.300781 186.121094 258.464844 Z M 186.121094 258.464844 " fill-opacity="1" fill-rule="nonzero"/><g clip-path="url(#de78c6c1d6)"><path fill="#147146" d="M 214.9375 311.769531 C 185.140625 311.769531 158.355469 295.277344 144.933594 268.699219 C 144.871094 268.585938 144.808594 268.472656 144.753906 268.359375 C 139.289062 257.429688 136.515625 245.648438 136.515625 233.347656 C 136.515625 229.390625 136.808594 225.460938 137.386719 221.667969 C 140.125 203.285156 149.40625 186.398438 163.515625 174.136719 C 177.769531 161.746094 196.03125 154.921875 214.9375 154.921875 C 233.847656 154.921875 252.109375 161.746094 266.363281 174.136719 C 280.46875 186.398438 289.75 203.28125 292.496094 221.679688 C 293.070312 225.46875 293.363281 229.394531 293.363281 233.347656 C 293.363281 245.648438 290.589844 257.429688 285.125 268.359375 C 285.066406 268.472656 285.007812 268.589844 284.945312 268.699219 C 271.523438 295.273438 244.734375 311.769531 214.9375 311.769531 Z M 157.199219 261.742188 C 157.257812 261.847656 157.316406 261.953125 157.371094 262.0625 C 168.332031 284.03125 190.390625 297.675781 214.9375 297.675781 C 239.488281 297.675781 261.546875 284.03125 272.507812 262.0625 C 272.5625 261.953125 272.621094 261.847656 272.679688 261.742188 C 277.050781 252.875 279.269531 243.324219 279.269531 233.347656 C 279.269531 230.097656 279.03125 226.878906 278.5625 223.78125 C 278.558594 223.777344 278.558594 223.769531 278.558594 223.761719 C 273.90625 192.550781 246.554688 169.015625 214.9375 169.015625 C 183.324219 169.015625 155.972656 192.550781 151.316406 223.761719 C 150.84375 226.878906 150.605469 230.097656 150.605469 233.347656 C 150.609375 243.324219 152.824219 252.878906 157.199219 261.742188 Z M 278.824219 265.207031 L 278.835938 265.207031 Z M 214.9375 242.527344 C 197.472656 242.527344 183.257812 228.3125 183.257812 210.835938 C 183.257812 193.367188 197.46875 179.15625 214.9375 179.15625 C 232.40625 179.15625 246.617188 193.367188 246.617188 210.835938 C 246.617188 211.519531 246.589844 212.207031 246.546875 212.890625 C 245.484375 229.511719 231.601562 242.527344 214.9375 242.527344 Z M 214.9375 193.246094 C 205.242188 193.246094 197.351562 201.136719 197.351562 210.835938 C 197.351562 220.542969 205.242188 228.4375 214.9375 228.4375 C 224.1875 228.4375 231.894531 221.214844 232.484375 211.996094 C 232.507812 211.613281 232.527344 211.226562 232.527344 210.835938 C 232.527344 201.136719 224.636719 193.246094 214.9375 193.246094 Z M 214.9375 193.246094 " fill-opacity="1" fill-rule="nonzero"/></g><g clip-path="url(#346dd10fff)"><path stroke-linecap="butt" transform="matrix(0.75, 0, 0, 0.75, 0.0000035, 0.00002)" fill="none" stroke-linejoin="miter" d="M 540.000023 -0.0000266667 C 241.765632 -0.0000266667 -0.00000466667 241.76561 -0.00000466667 540.000001 C -0.00000466667 838.234391 241.765632 1080.000028 540.000023 1080.000028 C 838.234413 1080.000028 1080.00005 838.234391 1080.00005 540.000001 C 1080.00005 241.76561 838.234413 -0.0000266667 540.000023 -0.0000266667 Z M 540.000023 -0.0000266667 " stroke="#147146" stroke-width="4" stroke-opacity="1" stroke-miterlimit="4"/></g></svg>